<svg height="511pt" viewBox="0 1 511 511.999" width="511pt" xmlns="http://www.w3.org/2000/svg"><path d="m407.636719 306.261719v-298.753907h-370.316407v307.261719c0 22.109375 17.925782 40.035157 40.035157 40.035157h378.824219c-26.808594 0-48.542969-21.734376-48.542969-48.542969zm0 0" fill="#f46262"/><path d="m456.179688 354.804688c-26.808594 0-48.542969-21.734376-48.542969-48.542969v-78.566407h97.085937v78.566407c0 26.808593-21.734375 48.542969-48.542968 48.542969zm0 0" fill="#e4edfb"/><path d="m142.792969 417.726562-77.238281 76.90625c-6.574219 6.585938-15.203126 9.878907-23.828126 9.878907-8.628906 0-17.253906-3.292969-23.839843-9.878907-13.171875-13.160156-13.171875-34.511718 0-47.671874l75.003906-74.683594c11.910156 19.507812 29.242187 35.351562 49.902344 45.449218zm0 0" fill="#e4edfb"/><path d="m345.585938 309.765625c0-82.78125-67.347657-150.128906-150.128907-150.128906s-150.128906 67.347656-150.128906 150.128906c0 11.449219 1.292969 22.601563 3.734375 33.328125 7.242188 7.234375 17.246094 11.710938 28.292969 11.710938h261.324219c4.480468-14.226563 6.90625-29.355469 6.90625-45.039063zm0 0" fill="#ef4848"/><path d="m142.792969 417.726562-22.21875 22.128907c-19.726563-11.410157-36.640625-27.164063-49.402344-45.960938l21.71875-21.617187c11.910156 19.507812 29.242187 35.351562 49.902344 45.449218zm0 0" fill="#bcc8d9"/><path d="m315.558594 309.765625c0 66.328125-53.769532 120.101563-120.101563 120.101563s-120.101562-53.773438-120.101562-120.101563c0-66.332031 53.769531-120.105469 120.101562-120.105469s120.101563 53.773438 120.101563 120.105469zm0 0" fill="#e4edfb"/><path d="m275.523438 309.765625c0 44.21875-35.847657 80.066406-80.066407 80.066406s-80.070312-35.847656-80.070312-80.066406c0-44.222656 35.851562-80.070313 80.070312-80.070313s80.066407 35.847657 80.066407 80.070313zm0 0" fill="#92d8ff"/><path d="m437.664062 336.285156v-108.589844h-30.027343v78.566407c0 26.808593 21.734375 48.542969 48.542969 48.542969-10.210938 0-18.515626-8.308594-18.515626-18.519532zm0 0" fill="#bcc8d9"/><path d="m195.457031 259.722656c39.085938 0 71.613281 28.011719 78.640625 65.054688.925782-4.867188 1.425782-9.878906 1.425782-15.011719 0-44.222656-35.847657-80.070313-80.066407-80.070313-44.222656 0-80.070312 35.847657-80.070312 80.070313 0 5.132813.503906 10.144531 1.429687 15.011719 7.027344-37.042969 39.554688-65.054688 78.640625-65.054688zm0 0" fill="#4abef0"/><g fill="#fff"><path d="m67.347656 30.027344h15.011719v15.011718h-15.011719zm0 0"/><path d="m360.597656 30.027344h15.011719v15.011718h-15.011719zm0 0"/><path d="m375.609375 315.769531h-15.011719v-15.011719h15.011719zm0-30.027343h-15.011719v-15.011719h15.011719zm0-30.023438h-15.011719v-15.011719h15.011719zm0-30.027344h-15.011719v-15.011718h15.011719zm0 0"/><path d="m105.742188 158.136719c-24.207032 0-43.898438-19.695313-43.898438-43.902344h15.011719c0 15.929687 12.957031 28.886719 28.886719 28.886719 15.929687 0 28.890624-12.957032 28.890624-28.886719v-58.6875h15.011719v58.6875c0 24.207031-19.695312 43.902344-43.902343 43.902344zm0 0"/><path d="m215.609375 158.136719c-27.59375 0-50.042969-22.449219-50.042969-50.042969v-6.371094c0-27.59375 22.449219-50.042968 50.042969-50.042968s50.042969 22.449218 50.042969 50.042968v6.371094c0 27.59375-22.449219 50.042969-50.042969 50.042969zm0-91.441407c-19.316406 0-35.027344 15.714844-35.027344 35.027344v6.371094c0 19.3125 15.710938 35.027344 35.027344 35.027344s35.03125-15.714844 35.03125-35.027344v-6.371094c0-19.3125-15.714844-35.027344-35.03125-35.027344zm0 0"/><path d="m329.34375 113.097656h-49.316406v-60.050781h49.316406c16.554688 0 30.023438 13.46875 30.023438 30.023437 0 16.558594-13.46875 30.027344-30.023438 30.027344zm-34.300781-15.015625h34.300781c8.277344 0 15.011719-6.734375 15.011719-15.011719 0-8.277343-6.734375-15.011718-15.011719-15.011718h-34.300781zm0 0"/><path d="m329.34375 158.136719h-49.316406v-60.054688h49.316406c16.554688 0 30.023438 13.472657 30.023438 30.027344s-13.46875 30.027344-30.023438 30.027344zm-34.300781-15.015625h34.300781c8.277344 0 15.011719-6.734375 15.011719-15.011719s-6.734375-15.011719-15.011719-15.011719h-34.300781zm0 0"/><path d="m220.476562 276.234375h15.015626v15.015625h-15.015626zm0 0"/><path d="m233.488281 305.261719h15.015625v15.011719h-15.015625zm0 0"/></g><path d="m283.03125 309.765625c0-48.289063-39.285156-87.574219-87.574219-87.574219-2.597656 0-5.21875.113282-7.789062.339844l1.320312 14.953125c2.132813-.1875 4.308594-.28125 6.46875-.28125 40.011719 0 72.5625 32.550781 72.5625 72.5625s-32.550781 72.5625-72.5625 72.5625c-13.519531 0-26.707031-3.742187-38.136719-10.816406l-7.902343 12.761719c13.804687 8.546874 29.726562 13.066406 46.039062 13.066406 48.289063 0 87.574219-39.285156 87.574219-87.574219zm0 0"/><path d="m175.632812 239.941406-4.089843-14.445312c-37.484375 10.617187-63.660157 45.269531-63.660157 84.265625 0 24.511719 10.375 48.066406 28.46875 64.621093l10.132813-11.074218c-14.992187-13.71875-23.589844-33.234375-23.589844-53.542969 0-32.316406 21.6875-61.027344 52.738281-69.824219zm0 0"/><path d="m44.828125 15.011719h187.660156v-15.011719h-202.671875v192.664062h15.011719zm0 0"/><path d="m415.144531 220.1875v-220.1875h-167.644531v15.011719h152.632812v291.25c0 16.191406 6.910157 30.792969 17.925782 41.035156h-100.628906c3.660156-11.871094 5.636718-24.476563 5.636718-37.53125 0-32.109375-11.96875-62.789063-33.695312-86.398437l-11.046875 10.167968c19.171875 20.828125 29.730469 47.898438 29.730469 76.230469 0 62.082031-50.511719 112.59375-112.597657 112.59375-62.085937 0-112.59375-50.511719-112.59375-112.59375 0-62.085937 50.507813-112.597656 112.59375-112.597656 26.613281 0 52.4375 9.457031 72.714844 26.625l9.703125-11.457031c-22.988281-19.460938-52.257812-30.179688-82.417969-30.179688-70.363281 0-127.609375 57.242188-127.609375 127.609375 0 12.964844 1.949219 25.484375 5.5625 37.28125-16.082031-1.953125-28.582031-15.679687-28.582031-32.277344v-107.09375h-15.011719v107.09375c0 26.210938 21.328125 47.539063 47.539063 47.539063h1.820312c1.339844 2.960937 2.796875 5.855468 4.351563 8.6875l-70.953125 70.65625c-7.785157 7.785156-12.074219 18.136718-12.074219 29.144531 0 11.011719 4.289062 21.363281 12.074219 29.148437 8.035156 8.035157 18.59375 12.054688 29.148437 12.054688 10.550782 0 21.105469-4.015625 29.132813-12.042969l73.554687-73.25c15.640625 6.851563 32.90625 10.667969 51.046875 10.667969 51.644531 0 96.21875-30.839844 116.28125-75.066406h151.738281l.019532-.492188c27.457031-3.597656 48.730468-27.128906 48.730468-55.554687v-86.074219zm-354.894531 269.140625c-10.21875 10.222656-26.84375 10.21875-37.0625 0-4.949219-4.949219-7.675781-11.53125-7.675781-18.53125s2.726562-13.582031 7.664062-18.519531l68.515625-68.222656c10.308594 14.394531 23.449219 26.449218 38.652344 35.472656zm436.964844-183.066406c0 22.324219-17.925782 40.53125-40.136719 41.011719l-1.226563.015624c-22.476562-.179687-40.707031-18.511718-40.707031-41.027343v-71.0625h82.070313zm0 0"/></svg>