<svg id="Layer_1" height="512" viewBox="0 0 512 512" width="512" xmlns="http://www.w3.org/2000/svg" xmlns:xlink="http://www.w3.org/1999/xlink" data-name="Layer 1"><linearGradient id="linear-gradient" gradientUnits="userSpaceOnUse" x1="385.441" x2="385.441" y1="25.973" y2="486.135"><stop offset="0" stop-color="#00efd1"/><stop offset="1" stop-color="#00acea"/></linearGradient><linearGradient id="linear-gradient-2" x1="126.559" x2="126.559" xlink:href="#linear-gradient" y1="25.973" y2="486.135"/><linearGradient id="linear-gradient-3" x1="255.985" x2="255.985" xlink:href="#linear-gradient" y1="25.973" y2="486.135"/><path d="m492.14 268.122-23.027-145.264a6 6 0 0 0 -6.509-5.032 34.052 34.052 0 0 0 -30.739 35.574l1.487 60.854a43.269 43.269 0 0 0 -36.61 24.567l-21.537 45.221a53.862 53.862 0 0 1 -14.845 18.75l-4.476 3.589a88.933 88.933 0 0 0 -33.157 76.943l-11.871-5.653a6 6 0 0 0 -8 2.837l-23.613 49.592a6 6 0 0 0 2.837 8l108.82 51.817a6 6 0 0 0 8-2.836l23.617-49.588a6 6 0 0 0 -2.837-8l-3.827-1.823-3.13-17.837a25.4 25.4 0 0 1 5.8-17.882l56.351-68.192c.085-.1.167-.209.245-.318a91.487 91.487 0 0 0 17.1-54.474 5.882 5.882 0 0 0 -.079-.845zm-101.5 208.378-97.983-46.664 18.456-38.754 97.987 46.668zm74.844-160.228-56.22 68.034a37.349 37.349 0 0 0 -8.494 26.7 5.847 5.847 0 0 0 .073.589l1.709 9.74-66.952-31.878a77.019 77.019 0 0 1 27.786-73.714l4.476-3.589a65.909 65.909 0 0 0 18.177-22.954l21.537-45.221a31.293 31.293 0 0 1 35.973-16.829l-32.574 68.394a6 6 0 0 0 10.834 5.161l35.4-74.334a6 6 0 0 0 -2.837-8 43.258 43.258 0 0 0 -9-3.115l-1.52-62.229c0-.052 0-.1 0-.157a22.069 22.069 0 0 1 14.405-21.848l21.963 138.55a79.427 79.427 0 0 1 -14.736 46.703z" fill="url(#linear-gradient)"/><path d="m209.141 380.508a6 6 0 0 0 -8-2.837l-11.871 5.653a88.933 88.933 0 0 0 -33.157-76.943l-4.476-3.589a53.862 53.862 0 0 1 -14.845-18.75l-21.537-45.221a43.27 43.27 0 0 0 -36.61-24.567l1.49-60.854a34.052 34.052 0 0 0 -30.735-35.574 6 6 0 0 0 -6.509 5.032l-23.031 145.264a5.882 5.882 0 0 0 -.073.848 91.487 91.487 0 0 0 17.1 54.474c.078.109.16.215.245.318l56.351 68.192a25.4 25.4 0 0 1 5.8 17.882l-3.13 17.837-3.827 1.827a6 6 0 0 0 -2.837 8l23.617 49.588a6 6 0 0 0 8 2.836l108.814-51.831a6 6 0 0 0 2.837-8zm-106.4 3.8-56.22-68.034a79.427 79.427 0 0 1 -14.736-46.7l21.956-138.547a22.069 22.069 0 0 1 14.405 21.848v.157l-1.52 62.229a43.258 43.258 0 0 0 -8.995 3.115 6 6 0 0 0 -2.837 8l35.4 74.334a6 6 0 0 0 10.834-5.161l-32.577-68.397a31.3 31.3 0 0 1 35.973 16.829l21.537 45.219a65.909 65.909 0 0 0 18.173 22.952l4.476 3.589a77.019 77.019 0 0 1 27.79 73.716l-66.948 31.884 1.709-9.74a5.847 5.847 0 0 0 .073-.589 37.349 37.349 0 0 0 -8.498-26.703zm18.619 92.192-18.46-38.75 97.984-46.665 18.456 38.754z" fill="url(#linear-gradient-2)"/><path d="m341 189.759v-94.452l30-11.614v92.244a21.766 21.766 0 1 0 27.946 20.871 22.023 22.023 0 0 0 -15.946-20.964v-99.878a6.145 6.145 0 0 0 -.009-.623c.011-.16.046-.317.044-.48a6 6 0 0 0 -3.924-5.575l-129.011-47.42a5.991 5.991 0 0 0 -4.14 0l-129.01 47.42a6 6 0 0 0 -3.929 5.575 6.062 6.062 0 0 0 3.892 5.648l38.087 14.796v94.452a5.938 5.938 0 0 0 3.837 5.622 255.4 255.4 0 0 0 89.232 16.09 254.924 254.924 0 0 0 89.146-16.09 5.892 5.892 0 0 0 3.785-5.622zm45.976 7.049a9.766 9.766 0 1 1 -9.766-9.766 9.777 9.777 0 0 1 9.766 9.766zm-138.941-162.916 112.057 41.188-26.592 10.349a5.959 5.959 0 0 0 -.883.343l-84.583 32.919-84.586-32.92a5.922 5.922 0 0 0 -.877-.341l-26.592-10.35zm-2.108 96.829a5.825 5.825 0 0 0 2.142.408 5.389 5.389 0 0 0 2.056-.408l78.875-30.744v43.783a242.677 242.677 0 0 1 -162 0v-43.783zm-78.927 54.833v-29.109a253.049 253.049 0 0 0 81 13.243 253.049 253.049 0 0 0 81-13.243v29.109a242.69 242.69 0 0 1 -162 0z" fill="url(#linear-gradient-3)"/></svg>