<svg xmlns="http://www.w3.org/2000/svg" height="512pt" version="1.1" viewBox="0 0 512 512" width="512pt">
<g id="surface1">
<path d="M 512 256 C 512 397.386719 397.386719 512 256 512 C 114.613281 512 0 397.386719 0 256 C 0 114.613281 114.613281 0 256 0 C 397.386719 0 512 114.613281 512 256 Z M 512 256 " style=" stroke:none;fill-rule:nonzero;fill:rgb(29.019608%,47.843137%,100%);fill-opacity:1;" />
<path d="M 256 512 C 381.039062 512 485.125 422.347656 507.523438 303.816406 L 346.394531 142.691406 L 342.597656 159.644531 L 319.449219 136.496094 L 313.03125 171.714844 L 291.039062 149.726562 L 284.007812 183.140625 L 194.433594 93.566406 L 190.851562 107.742188 L 168.761719 85.652344 L 168.394531 122.324219 L 145.140625 99.066406 L 144.488281 144.761719 L 119.464844 119.738281 L 112.859375 268.640625 L 142.636719 298.421875 L 101.710938 460.28125 C 144.617188 492.738281 198.054688 512 256 512 Z M 256 512 " style=" stroke:none;fill-rule:nonzero;fill:rgb(15.686275%,39.215686%,94.117647%);fill-opacity:1;" />
<path d="M 354.628906 228.734375 C 347.113281 228.824219 341.066406 234.941406 341.066406 242.457031 L 341.066406 282.851562 C 341.066406 282.863281 341.054688 282.878906 341.039062 282.878906 L 337.097656 283.152344 C 318.902344 284.417969 304.269531 298.367188 301.628906 315.957031 L 293.023438 316.03125 C 295.535156 295.246094 311.726562 278.34375 332.511719 275.09375 C 332.527344 275.09375 332.535156 275.082031 332.535156 275.066406 L 332.535156 241.976562 C 332.535156 241.648438 332.546875 241.320312 332.5625 240.992188 C 333 232.691406 340.398438 222.585938 348.707031 222.53125 C 348.84375 222.53125 348.777344 166.691406 348.734375 149.21875 C 348.71875 143.5 344.082031 138.878906 338.363281 138.878906 L 338.335938 138.878906 C 332.609375 138.878906 327.964844 143.523438 327.964844 149.25 L 327.964844 226.984375 L 320.925781 226.984375 L 320.925781 141.808594 C 320.925781 136.082031 316.285156 131.4375 310.554688 131.4375 L 309.8125 131.4375 C 304.082031 131.4375 299.441406 136.082031 299.441406 141.808594 L 299.441406 232.941406 L 292.402344 232.941406 L 292.402344 154.84375 C 292.402344 149.117188 287.757812 144.476562 282.03125 144.476562 L 281.285156 144.476562 C 275.558594 144.476562 270.914062 149.117188 270.914062 154.84375 L 270.914062 240.386719 L 263.875 240.386719 L 263.875 179.199219 C 263.875 173.472656 259.234375 168.832031 253.507812 168.832031 C 247.777344 168.832031 243.136719 173.472656 243.136719 179.199219 L 243.136719 318.148438 L 243.296875 318.148438 C 244.457031 331.246094 252.105469 342.480469 263.007812 348.613281 C 263.015625 348.617188 263.023438 348.628906 263.023438 348.640625 C 263.023438 348.640625 263.027344 392.613281 263.039062 440.339844 C 265.925781 440.480469 268.828125 440.554688 271.75 440.554688 C 299.359375 440.554688 325.46875 434.15625 348.691406 422.773438 C 348.699219 383.105469 348.707031 350.414062 348.707031 350.414062 C 348.707031 350.402344 348.714844 350.394531 348.722656 350.390625 C 360.367188 345.183594 368.507812 333.5 368.507812 319.941406 L 368.507812 242.453125 C 368.507812 234.816406 362.269531 228.648438 354.628906 228.734375 Z M 354.628906 228.734375 " style=" stroke:none;fill-rule:nonzero;fill:rgb(100%,74.509804%,66.666667%);fill-opacity:1;" />
<path d="M 332.511719 275.097656 C 332.527344 275.09375 332.535156 275.082031 332.535156 275.066406 L 332.535156 241.980469 C 332.535156 241.648438 332.546875 241.320312 332.5625 240.992188 C 333 232.695312 340.394531 222.585938 348.707031 222.535156 C 348.84375 222.535156 348.777344 166.695312 348.734375 149.21875 C 348.71875 143.503906 344.082031 138.882812 338.363281 138.882812 L 338.335938 138.882812 C 332.609375 138.882812 327.964844 143.523438 327.964844 149.253906 L 327.964844 226.988281 L 320.925781 226.988281 L 320.925781 141.8125 C 320.925781 136.085938 316.285156 131.441406 310.554688 131.441406 L 309.8125 131.441406 C 304.082031 131.441406 299.441406 136.085938 299.441406 141.8125 L 299.441406 232.945312 L 298.621094 232.945312 L 298.621094 298.859375 C 305.527344 286.441406 317.875 277.382812 332.511719 275.097656 Z M 332.511719 275.097656 " style=" stroke:none;fill-rule:nonzero;fill:rgb(98.039216%,65.098039%,55.686275%);fill-opacity:1;" />
<path d="M 354.628906 228.734375 C 347.113281 228.824219 341.066406 234.941406 341.066406 242.457031 L 341.066406 282.851562 C 341.066406 282.867188 341.054688 282.878906 341.039062 282.878906 L 337.097656 283.152344 C 318.902344 284.417969 304.269531 298.367188 301.628906 315.957031 L 298.617188 315.984375 L 298.617188 438.492188 C 316.324219 435.761719 333.15625 430.390625 348.691406 422.777344 C 348.699219 383.105469 348.707031 350.417969 348.707031 350.417969 C 348.707031 350.40625 348.714844 350.398438 348.722656 350.394531 C 360.367188 345.1875 368.507812 333.5 368.507812 319.941406 L 368.507812 242.457031 C 368.507812 234.816406 362.269531 228.648438 354.628906 228.734375 Z M 354.628906 228.734375 " style=" stroke:none;fill-rule:nonzero;fill:rgb(98.039216%,65.098039%,55.686275%);fill-opacity:1;" />
<path d="M 201.273438 168.851562 C 194.648438 168.929688 189.320312 174.320312 189.320312 180.945312 L 189.320312 216.550781 C 189.320312 216.566406 189.308594 216.574219 189.296875 216.578125 L 185.820312 216.816406 C 169.78125 217.933594 156.886719 230.226562 154.558594 245.734375 L 146.972656 245.800781 C 149.1875 227.476562 163.457031 212.578125 181.78125 209.714844 C 181.792969 209.714844 181.800781 209.703125 181.800781 209.691406 L 181.800781 180.527344 C 181.800781 180.234375 181.808594 179.945312 181.824219 179.65625 C 182.210938 172.34375 188.730469 163.433594 196.054688 163.386719 C 196.171875 163.386719 196.117188 114.167969 196.078125 98.765625 C 196.066406 93.726562 191.976562 89.652344 186.9375 89.652344 L 186.914062 89.652344 C 181.863281 89.652344 177.773438 93.746094 177.773438 98.792969 L 177.773438 167.3125 L 171.566406 167.3125 L 171.566406 92.234375 C 171.566406 87.1875 167.476562 83.09375 162.425781 83.09375 L 161.769531 83.09375 C 156.722656 83.09375 152.628906 87.183594 152.628906 92.234375 L 152.628906 172.5625 L 146.425781 172.5625 L 146.425781 103.722656 C 146.425781 98.675781 142.332031 94.582031 137.28125 94.582031 L 136.625 94.582031 C 131.578125 94.582031 127.484375 98.675781 127.484375 103.722656 L 127.484375 179.125 L 121.28125 179.125 L 121.28125 125.191406 C 121.28125 120.144531 117.1875 116.050781 112.140625 116.050781 C 107.089844 116.050781 102.996094 120.144531 102.996094 125.191406 L 102.996094 247.664062 L 103.140625 247.664062 C 104.160156 259.210938 110.902344 269.113281 120.511719 274.519531 C 120.519531 274.523438 120.527344 274.53125 120.527344 274.539062 C 120.527344 274.539062 120.53125 313.300781 120.539062 355.367188 C 123.085938 355.492188 125.644531 355.558594 128.21875 355.558594 C 152.554688 355.558594 175.566406 349.917969 196.039062 339.886719 C 196.046875 304.917969 196.050781 276.105469 196.050781 276.105469 C 196.050781 276.097656 196.058594 276.089844 196.066406 276.085938 C 206.332031 271.496094 213.503906 261.195312 213.503906 249.246094 L 213.503906 180.945312 C 213.507812 174.210938 208.007812 168.773438 201.273438 168.851562 Z M 201.273438 168.851562 " style=" stroke:none;fill-rule:nonzero;fill:rgb(100%,74.509804%,66.666667%);fill-opacity:1;" />
<path d="M 181.78125 209.714844 C 181.792969 209.714844 181.800781 209.703125 181.800781 209.691406 L 181.800781 180.527344 C 181.800781 180.234375 181.808594 179.945312 181.824219 179.65625 C 182.210938 172.34375 188.730469 163.429688 196.054688 163.386719 C 196.171875 163.386719 196.117188 114.167969 196.078125 98.765625 C 196.066406 93.722656 191.976562 89.652344 186.9375 89.652344 L 186.914062 89.652344 C 181.863281 89.652344 177.773438 93.742188 177.773438 98.792969 L 177.773438 167.3125 L 171.566406 167.3125 L 171.566406 92.234375 C 171.566406 87.1875 167.476562 83.09375 162.425781 83.09375 L 161.769531 83.09375 C 156.722656 83.09375 152.628906 87.183594 152.628906 92.234375 L 152.628906 172.5625 L 152.191406 172.5625 L 152.191406 230.148438 C 158.332031 219.46875 169.078125 211.699219 181.78125 209.714844 Z M 181.78125 209.714844 " style=" stroke:none;fill-rule:nonzero;fill:rgb(98.039216%,65.098039%,55.686275%);fill-opacity:1;" />
<path d="M 201.273438 168.851562 C 194.648438 168.929688 189.320312 174.320312 189.320312 180.945312 L 189.320312 216.550781 C 189.320312 216.566406 189.308594 216.574219 189.296875 216.578125 L 185.820312 216.816406 C 169.78125 217.933594 156.886719 230.230469 154.558594 245.734375 L 152.191406 245.753906 L 152.191406 353.691406 C 167.691406 351.273438 182.429688 346.558594 196.039062 339.886719 C 196.046875 304.921875 196.054688 276.109375 196.054688 276.109375 C 196.054688 276.097656 196.058594 276.089844 196.066406 276.085938 C 206.332031 271.496094 213.507812 261.199219 213.507812 249.246094 L 213.507812 180.949219 C 213.507812 174.210938 208.007812 168.773438 201.273438 168.851562 Z M 201.273438 168.851562 " style=" stroke:none;fill-rule:nonzero;fill:rgb(98.039216%,65.098039%,55.686275%);fill-opacity:1;" />
<path d="M 248.050781 511.863281 C 250.691406 511.945312 253.339844 512 256 512 C 294.574219 512 331.144531 503.453125 363.949219 488.175781 L 363.949219 398.5 L 248.050781 398.5 Z M 248.050781 511.863281 " style=" stroke:none;fill-rule:nonzero;fill:rgb(91.372549%,92.941176%,96.078431%);fill-opacity:1;" />
<path d="M 363.949219 398.5 L 298.617188 398.5 L 298.617188 508.460938 C 321.574219 504.605469 343.492188 497.699219 363.949219 488.175781 Z M 363.949219 398.5 " style=" stroke:none;fill-rule:nonzero;fill:rgb(86.27451%,88.235294%,92.156863%);fill-opacity:1;" />
<path d="M 97.609375 457.128906 C 130.636719 483.171875 170.234375 501.238281 213.507812 508.46875 L 213.507812 321.5 L 97.609375 321.5 Z M 97.609375 457.128906 " style=" stroke:none;fill-rule:nonzero;fill:rgb(100%,83.137255%,0%);fill-opacity:1;" />
<path d="M 213.507812 321.5 L 152.191406 321.5 L 152.191406 490.058594 C 171.492188 498.628906 192.046875 504.882812 213.507812 508.46875 Z M 213.507812 321.5 " style=" stroke:none;fill-rule:nonzero;fill:rgb(99.215686%,72.941176%,7.058824%);fill-opacity:1;" />
</g>
</svg>